<svg aria-hidden="true" style="width:0;height:0;position:absolute;overflow:hidden" xmlns="http://www.w3.org/2000/svg"><defs><symbol id="icon-facebook" viewBox="0 0 32 32"><path d="M14.26 11.916v1.836h-1.344v2.244h1.344v6.67h2.763v-6.67h1.854s.174-1.077.259-2.254h-2.102v-1.533c0-.231.302-.539.6-.539h1.504V9.332H17.09c-2.898 0-2.83 2.247-2.83 2.583z"/><path d="M8 5.333A2.667 2.667 0 0 0 5.333 8v16A2.667 2.667 0 0 0 8 26.667h16A2.667 2.667 0 0 0 26.667 24V8A2.667 2.667 0 0 0 24 5.333H8zm0-2.666h16A5.333 5.333 0 0 1 29.333 8v16A5.333 5.333 0 0 1 24 29.333H8A5.333 5.333 0 0 1 2.667 24V8A5.333 5.333 0 0 1 8 2.667z"/></symbol><symbol id="icon-instagram" viewBox="0 0 32 32"><path d="M9.954 1.421c1.564-.072 2.062-.088 6.046-.088s4.483.018 6.045.088c1.563.071 2.629.32 3.563.682a7.243 7.243 0 0 1 2.596 1.692l.001.001a7.174 7.174 0 0 1 1.673 2.547l.017.049c.363.934.611 2.001.683 3.56.072 1.566.088 2.065.088 6.048s-.018 4.483-.088 6.046c-.071 1.56-.32 2.627-.683 3.56a7.23 7.23 0 0 1-1.69 2.597l-.001.001a7.206 7.206 0 0 1-2.547 1.675l-.049.017c-.933.363-2 .61-3.56.683-1.565.072-2.064.088-6.048.088s-4.482-.018-6.046-.088c-1.56-.071-2.627-.32-3.56-.683a7.23 7.23 0 0 1-2.597-1.69l-.001-.001a7.208 7.208 0 0 1-1.676-2.547l-.017-.049c-.361-.933-.61-2-.681-3.56-.072-1.566-.088-2.065-.088-6.048s.018-4.482.088-6.045c.071-1.563.32-2.63.682-3.563a7.226 7.226 0 0 1 1.692-2.595l.001-.001a7.208 7.208 0 0 1 2.547-1.676l.049-.017c.934-.361 2.002-.61 3.562-.681zm11.973 2.64c-1.547-.07-2.011-.085-5.927-.085s-4.38.015-5.927.085c-1.43.066-2.206.305-2.724.506a4.557 4.557 0 0 0-1.687 1.096 4.555 4.555 0 0 0-1.085 1.656l-.01.031c-.201.517-.44 1.293-.505 2.724-.071 1.547-.086 2.011-.086 5.927s.015 4.38.085 5.927c.066 1.431.305 2.206.506 2.724.235.636.61 1.214 1.096 1.687a4.56 4.56 0 0 0 1.655 1.085l.031.01c.517.201 1.293.44 2.724.505 1.547.071 2.009.086 5.927.086s4.38-.015 5.927-.085c1.431-.066 2.206-.305 2.724-.506a4.557 4.557 0 0 0 1.687-1.096 4.56 4.56 0 0 0 1.085-1.655l.01-.031c.201-.517.44-1.293.505-2.724.071-1.547.086-2.011.086-5.927s-.015-4.38-.085-5.927c-.066-1.43-.305-2.206-.506-2.724a4.557 4.557 0 0 0-1.096-1.687 4.555 4.555 0 0 0-1.656-1.085l-.031-.01c-.517-.201-1.293-.44-2.724-.505zm-7.801 16.46a4.891 4.891 0 0 0 5.333-7.981 4.895 4.895 0 0 0-8.296 2.716l-.003.027a4.896 4.896 0 0 0 2.934 5.226l.032.012zm-3.457-9.851a7.54 7.54 0 0 1 12.87 5.331v.002c0 4.164-3.375 7.539-7.539 7.539a7.539 7.539 0 0 1-5.329-12.871zM25.21 9.584a1.783 1.783 0 1 0-2.446-2.593 1.783 1.783 0 0 0 2.448 2.591l-.002.002z"/></symbol><symbol id="icon-map" viewBox="0 0 32 32"><path d="M24.36 8c1.346 2.894 1.04 6.306-.44 9.08-1.254 2.254-3.054 4.16-4.587 6.254-.666.933-1.333 1.933-1.826 3.013-.174.36-.293.734-.426 1.107-.053.114-.18.486-.301.861l-.073.259c-.12.346-.266.76-.706.76-.52 0-.667-.587-.774-.987-.32-.973-.64-1.906-1.134-2.8-.56-1.053-1.266-2.026-1.986-2.973L24.361 8zm-12.2 3.226-4.4 5.227c.814 1.72 2.026 3.186 3.186 4.653.28.334.56.68.827 1.04l5.559-6.586-.053.014a3.917 3.917 0 0 1-4.87-2.214l-.01-.026a3.233 3.233 0 0 1-.237-.739l-.003-.021a4.14 4.14 0 0 1 .003-1.358l-.003.024v-.014zM8.774 6.16l-.014.014C6.6 8.907 6.226 12.707 7.52 15.92l5.32-6.32-.066-.066-4-3.374zM18.96 3.146l-4.294 5.08.054-.013c1.786-.614 3.786.16 4.693 1.786.2.374.361.774.414 1.174.08.506.107.866.014 1.36v.013l4.266-5.066a9.373 9.373 0 0 0-5.067-4.3l-.065-.02-.014-.014zm-5.774 6.04 5.214-6.2-.054-.013a9.147 9.147 0 0 0-2.344-.307H16c-2.627 0-5.106 1.134-6.866 3.08l-.027.014 4.08 3.426z"/></symbol><symbol id="icon-mobile" viewBox="0 0 32 32"><path d="M21.625 2.5h-11.25a2.284 2.284 0 0 0-1.653.734l-.001.002A2.587 2.587 0 0 0 8.031 5v22c0 .682.262 1.302.692 1.766l-.002-.002c.413.447 1 .728 1.653.736h11.251a2.284 2.284 0 0 0 1.653-.734l.001-.002c.428-.462.69-1.082.69-1.764V5c0-.682-.262-1.302-.692-1.766l.002.002c-.413-.447-1-.728-1.653-.736h-.001zm-12.656 5H23.03v17H8.97v-17zm1.406-4h11.25c.373 0 .73.158.994.44.264.28.412.662.412 1.06v1.5H8.97V5c0-.398.148-.78.412-1.06a1.36 1.36 0 0 1 .994-.44zm11.25 25h-11.25a1.36 1.36 0 0 1-.994-.44 1.547 1.547 0 0 1-.412-1.053V25.5H23.03V27c0 .398-.148.78-.412 1.06a1.36 1.36 0 0 1-.994.44z"/></symbol><symbol id="icon-arrow-r" viewBox="0 0 32 32"><path d="m11.896 3.855 11.222 11.21c.133.133.227.278.282.434.056.156.084.323.084.501s-.028.345-.084.501a1.17 1.17 0 0 1-.282.433L11.896 28.178c-.311.311-.699.467-1.165.467s-.866-.167-1.198-.501c-.333-.333-.5-.723-.5-1.167s.167-.834.5-1.168L19.322 16 9.533 6.191c-.311-.312-.467-.695-.467-1.151s.167-.851.5-1.185c.333-.334.722-.501 1.165-.501s.833.167 1.165.501z"/></symbol><symbol id="icon-arrow-l" viewBox="0 0 32 32"><path d="M20.104 28.145 8.882 16.935a1.167 1.167 0 0 1-.28-.426l-.003-.008a1.447 1.447 0 0 1-.084-.49V16v.001c0-.178.028-.345.084-.501.055-.155.149-.3.282-.434L20.103 3.822c.311-.311.699-.467 1.165-.467s.866.167 1.198.501c.333.333.5.723.5 1.167s-.167.834-.5 1.168L12.677 16l9.789 9.809c.311.312.467.695.467 1.151s-.167.851-.5 1.185c-.333.334-.722.501-1.165.501s-.833-.167-1.165-.501z"/></symbol><symbol id="icon-btn-close" viewBox="0 0 32 32"><path d="M16 17.866 9.466 24.4c-.244.244-.555.366-.934.366s-.688-.122-.933-.366-.367-.556-.367-.934.122-.688.367-.933l6.533-6.534-6.533-6.534c-.245-.244-.367-.555-.367-.933s.122-.689.367-.934c.244-.245.555-.366.933-.366s.69.122.934.366L16 14.132l6.533-6.534c.245-.245.556-.366.934-.366s.689.122.934.366c.244.245.366.555.366.934s-.122.688-.366.933l-6.534 6.534 6.534 6.534c.244.244.366.555.366.933s-.122.689-.366.934c-.245.244-.556.366-.934.366s-.688-.122-.933-.366L16 17.866z"/></symbol><symbol id="icon-telegram" viewBox="0 0 32 32"><path d="M15.925 0C7.12.042 0 7.19 0 16c0 8.837 7.164 16 16 16h.079-.004C24.88 31.958 32 24.81 32 16c0-8.837-7.164-16-16-16h-.079.004zm6.616 9.632c.133-.002.428.03.62.187a.673.673 0 0 1 .228.43v.003c.021.124.048.408.026.629-.239 2.53-1.282 8.669-1.813 11.502-.224 1.2-.665 1.602-1.093 1.64-.928.086-1.634-.613-2.534-1.203-1.408-.924-2.203-1.499-3.57-2.4-1.58-1.04-.556-1.613.344-2.546.236-.245 4.33-3.97 4.41-4.307.009-.043.018-.2-.075-.282-.094-.084-.232-.056-.332-.033-.141.032-2.391 1.52-6.748 4.46-.64.44-1.218.653-1.736.64-.571-.011-1.669-.322-2.487-.587-1.003-.327-1.798-.499-1.73-1.051.037-.289.434-.584 1.191-.885 4.664-2.032 7.774-3.372 9.331-4.019 4.442-1.848 5.366-2.169 5.967-2.179z"/></symbol><symbol id="icon-burger-menu" viewBox="0 0 32 32"><path d="M2.666 8c0-.737.597-1.334 1.334-1.334h24a1.334 1.334 0 1 1 0 2.668H4A1.334 1.334 0 0 1 2.666 8zm0 8.042A1.335 1.335 0 0 1 4 14.709h24l.039-.001a1.334 1.334 0 1 1 0 2.668l-.041-.001H28 4a1.334 1.334 0 0 1-1.334-1.334zM4 22.752a1.334 1.334 0 0 0-.002 2.666H28l.039.001a1.334 1.334 0 1 0 0-2.668l-.041.001H28 4z"/></symbol></defs></svg>