<svg width="140" height="29" fill="none" xmlns="http://www.w3.org/2000/svg"><g clip-path="url('#clip0_606_7')"><mask id="mask0_606_7" style="mask-type:luminance" maskUnits="userSpaceOnUse" x="0" y="0" width="140" height="29"><path d="M140 0H0v29h140V0Z" fill="#fff"/></mask><g mask="url('#mask0_606_7')" fill="#333121" fill-opacity=".98"><path d="M24.988 7.742a6.715 6.715 0 0 1-2.221 1.293 7.593 7.593 0 0 1-2.552.44 7.715 7.715 0 0 1-2.54-.431 6.496 6.496 0 0 1-2.214-1.3l-3.05-2.702a4.872 4.872 0 0 0-1.646-.978 5.608 5.608 0 0 0-3.773 0 4.858 4.858 0 0 0-1.643.978L2.863 7.218l-1.16-1.03L4.16 3.986a6.625 6.625 0 0 1 2.212-1.293 7.56 7.56 0 0 1 2.505-.43c.847 0 1.677.143 2.488.43a6.698 6.698 0 0 1 2.199 1.293l3.05 2.702c.513.461 1.075.8 1.686 1.015.61.216 1.249.324 1.916.324.668 0 1.302-.108 1.903-.326a5.165 5.165 0 0 0 1.678-1.013l2.487-2.176 1.161 1.03-2.456 2.201Zm0 6.376a6.565 6.565 0 0 1-2.22 1.293 7.723 7.723 0 0 1-5.087 0 6.567 6.567 0 0 1-2.22-1.293l-3.05-2.702a4.878 4.878 0 0 0-1.644-.978 5.622 5.622 0 0 0-3.775 0 4.881 4.881 0 0 0-1.643.978l-2.486 2.176-1.16-.993 2.456-2.24a6.625 6.625 0 0 1 2.212-1.292 7.56 7.56 0 0 1 2.505-.431c.847 0 1.677.143 2.488.43a6.698 6.698 0 0 1 2.199 1.293l3.05 2.702c.507.462 1.062.8 1.666 1.015a5.601 5.601 0 0 0 1.905.324 5.7 5.7 0 0 0 1.919-.325 5.105 5.105 0 0 0 1.693-1.014l2.487-2.176 1.16 1.03-2.455 2.203Zm-.04 6.374a6.59 6.59 0 0 1-2.2 1.293 7.553 7.553 0 0 1-5.067-.013 6.753 6.753 0 0 1-2.22-1.307l-3.09-2.675a4.87 4.87 0 0 0-1.646-.977 5.605 5.605 0 0 0-3.773 0 4.857 4.857 0 0 0-1.643.977l-2.487 2.176-1.119-.993 2.456-2.24a6.566 6.566 0 0 1 2.2-1.292 7.457 7.457 0 0 1 4.993 0 6.77 6.77 0 0 1 2.21 1.292l3.05 2.703a5.168 5.168 0 0 0 1.679 1.013 5.564 5.564 0 0 0 1.903.325c.666 0 1.305-.108 1.916-.324a5.036 5.036 0 0 0 1.686-1.014l2.487-2.177 1.12 1.03-2.455 2.203ZM47.063 12.103a10.2 10.2 0 0 1-.363 2.729 10.186 10.186 0 0 1-1.006 2.444c-.438.752-.96 1.443-1.566 2.072a10.09 10.09 0 0 1-4.43 2.643 9.777 9.777 0 0 1-2.656.358h-6.038V1.857h6.038c.923 0 1.808.124 2.656.371a9.677 9.677 0 0 1 2.404 1.03 9.827 9.827 0 0 1 2.027 1.614c.605.62 1.127 1.31 1.565 2.072A9.878 9.878 0 0 1 46.7 9.388c.242.866.363 1.771.363 2.715Zm-4.01 0c0-.848-.159-1.644-.476-2.387a5.95 5.95 0 0 0-1.286-1.943 5.952 5.952 0 0 0-1.915-1.33 5.668 5.668 0 0 0-2.334-.485h-1.998v12.29h1.998c.83 0 1.608-.158 2.334-.472a6.065 6.065 0 0 0 1.915-1.315 6.113 6.113 0 0 0 1.286-1.958 6.12 6.12 0 0 0 .475-2.4ZM61.53 14.16v-4.1c0-.563-.108-1.092-.322-1.587a3.921 3.921 0 0 0-2.139-2.186 3.72 3.72 0 0 0-1.55-.33c-.55 0-1.072.11-1.566.33-.485.21-.909.5-1.272.871a4.107 4.107 0 0 0-1.174 2.9v4.102h8.023Zm4.01 8.189h-4.01v-4.102h-8.023v4.102H49.51v-12.29c0-1.134.21-2.196.629-3.187a8.39 8.39 0 0 1 1.705-2.615A8.113 8.113 0 0 1 54.388 2.5a7.715 7.715 0 0 1 3.13-.643c1.11 0 2.148.214 3.117.643a8.068 8.068 0 0 1 2.558 1.757 8.267 8.267 0 0 1 1.719 2.615c.42.991.629 2.053.629 3.187v12.29Zm11.28 0h-3.997V5.958h-6.024V1.857H82.83v4.1h-6.01V22.35Zm23.495-2.101a10.159 10.159 0 0 1-6.722 2.544 9.82 9.82 0 0 1-2.754-.386c-.876-.248-1.7-.6-2.474-1.058a10.978 10.978 0 0 1-3.732-3.815 11.368 11.368 0 0 1-1.048-2.53 10.838 10.838 0 0 1-.363-2.815c0-.971.12-1.91.363-2.815.252-.905.601-1.748 1.048-2.53.457-.79 1.002-1.51 1.636-2.157a10.375 10.375 0 0 1 4.57-2.73 9.818 9.818 0 0 1 2.754-.385c1.239 0 2.436.219 3.592.657a9.802 9.802 0 0 1 3.13 1.886l-2.124 3.573a5.925 5.925 0 0 0-2.083-1.486 6.182 6.182 0 0 0-2.516-.529c-.885 0-1.714.172-2.487.515a6.484 6.484 0 0 0-2.027 1.4 6.427 6.427 0 0 0-1.37 2.072 6.41 6.41 0 0 0-.503 2.53c0 .895.168 1.738.503 2.529a6.686 6.686 0 0 0 1.37 2.058 6.484 6.484 0 0 0 2.027 1.4 6.066 6.066 0 0 0 2.487.514c.876 0 1.715-.171 2.516-.514a6.087 6.087 0 0 0 2.083-1.5l2.124 3.572Zm6.346 2.1h-4.011V1.858h4.011v8.202h8.008V1.857h4.012v20.492h-4.012V14.16h-8.008v8.189Zm27.548-8.188v-4.1c0-.563-.107-1.092-.321-1.587a4.013 4.013 0 0 0-.853-1.315 3.915 3.915 0 0 0-1.286-.871 3.717 3.717 0 0 0-1.551-.33c-.55 0-1.072.11-1.566.33-.484.21-.908.5-1.271.871a4.107 4.107 0 0 0-1.175 2.9v4.102h8.023Zm4.011 8.189h-4.011v-4.102h-8.023v4.102h-3.997v-12.29c0-1.134.21-2.196.629-3.187.419-1 .988-1.872 1.705-2.615a8.118 8.118 0 0 1 2.544-1.757 7.714 7.714 0 0 1 3.131-.643c1.109 0 2.148.214 3.117.643a8.061 8.061 0 0 1 2.557 1.757 8.262 8.262 0 0 1 1.719 2.615c.42.991.629 2.053.629 3.187v12.29ZM29.096 22.191c-.174 0-.323-.013-.448-.041a.906.906 0 0 1-.31-.126.558.558 0 0 1-.187-.21 1.11 1.11 0 0 1-.135-.333 3.855 3.855 0 0 1-.076-.455l.114-.02c.01.09.022.173.035.25.012.076.027.146.043.21.015.063.032.12.052.17.02.049.041.092.066.128a.452.452 0 0 0 .143.147.77.77 0 0 0 .227.097c.09.024.195.04.315.046v-.01a.567.567 0 0 1-.255-.305.608.608 0 0 1-.04-.222c0-.119.025-.218.074-.299a.453.453 0 0 1 .213-.184.835.835 0 0 1 .34-.062c.138 0 .258.022.361.067a.523.523 0 0 1 .24.203c.055.089.084.2.084.335a.57.57 0 0 1-.065.28.54.54 0 0 1-.182.192.871.871 0 0 1-.272.107 1.531 1.531 0 0 1-.337.035Zm.744-.624a.454.454 0 0 0-.068-.258.408.408 0 0 0-.194-.15.83.83 0 0 0-.301-.05c-.172 0-.302.036-.39.108-.09.072-.134.177-.134.316a.545.545 0 0 0 .163.395c.05.05.107.093.173.13.094 0 .186-.008.275-.023a.834.834 0 0 0 .242-.076.444.444 0 0 0 .171-.15.44.44 0 0 0 .063-.242Zm-1.32-1.474c0-.155.039-.27.115-.348.076-.077.198-.115.365-.115h.926v.1l-.241.024v.008a.61.61 0 0 1 .138.11c.04.044.071.097.094.16a.667.667 0 0 1 .034.229.56.56 0 0 1-.044.234.34.34 0 0 1-.13.15.39.39 0 0 1-.207.051.344.344 0 0 1-.312-.174c-.072-.116-.113-.283-.122-.5l-.013-.262h-.1c-.142 0-.243.028-.303.085-.06.057-.09.142-.09.254 0 .072.01.142.028.21.018.067.044.135.077.204l-.106.042a1.29 1.29 0 0 1-.078-.217.965.965 0 0 1-.03-.245Zm.703-.332.01.247c.009.179.04.315.095.409.054.093.135.14.244.14.087 0 .154-.027.2-.083a.356.356 0 0 0 .07-.234c0-.155-.043-.273-.13-.354a.496.496 0 0 0-.353-.125h-.136Zm-.705-.91c0-.096.014-.18.042-.248a.331.331 0 0 1 .122-.156.329.329 0 0 1 .192-.054c.08 0 .146.021.198.065a.359.359 0 0 1 .11.183h.008a.444.444 0 0 1 .069-.165.296.296 0 0 1 .118-.101.366.366 0 0 1 .162-.034c.084 0 .157.022.22.066.061.044.109.105.143.186.033.08.05.177.05.29a1.3 1.3 0 0 1-.044.327.81.81 0 0 1-.047.116h-.126a.933.933 0 0 0 .106-.443c0-.08-.012-.15-.035-.212a.321.321 0 0 0-.102-.146.274.274 0 0 0-.173-.053.251.251 0 0 0-.16.048.27.27 0 0 0-.09.142.784.784 0 0 0-.03.231v.19h-.11v-.176a.55.55 0 0 0-.063-.282.214.214 0 0 0-.197-.105.216.216 0 0 0-.186.087.41.41 0 0 0-.065.25c0 .077.009.146.027.206.017.06.04.123.068.187l-.108.048a1.226 1.226 0 0 1-.071-.206.974.974 0 0 1-.028-.24Zm.003-1.371c0-.155.038-.271.114-.349.076-.077.198-.115.365-.115h.926v.101l-.241.023v.008c.051.03.097.067.138.11.04.044.071.097.094.16a.667.667 0 0 1 .034.23.56.56 0 0 1-.044.233.34.34 0 0 1-.13.15.39.39 0 0 1-.207.051.344.344 0 0 1-.312-.174c-.072-.116-.113-.283-.122-.5l-.013-.262h-.1c-.142 0-.243.028-.303.085-.06.058-.09.142-.09.254 0 .073.01.143.028.21.018.067.044.135.077.204l-.106.042a1.29 1.29 0 0 1-.078-.217.965.965 0 0 1-.03-.244Zm.702-.333.01.247c.009.18.04.316.095.41.054.093.135.14.244.14.087 0 .154-.028.2-.084a.356.356 0 0 0 .07-.234c0-.155-.043-.273-.13-.354a.496.496 0 0 0-.353-.125h-.136Zm-.342-2.334a.29.29 0 0 1 .206.07c.05.046.084.107.102.183h.008a.39.39 0 0 1 .103-.224c.054-.057.132-.085.233-.085.08 0 .15.018.209.054a.35.35 0 0 1 .136.168c.032.074.048.17.048.287v.604h-1.381v-.588c0-.104.013-.191.04-.26a.313.313 0 0 1 .112-.156.307.307 0 0 1 .184-.053Zm.652.08c-.099 0-.17.034-.213.103a.57.57 0 0 0-.065.301v.44h.562v-.448a.524.524 0 0 0-.069-.297c-.047-.066-.118-.099-.215-.099Zm-.641.053a.206.206 0 0 0-.172.08c-.042.053-.063.142-.063.268v.444h.485v-.43c0-.125-.02-.217-.062-.275-.043-.058-.105-.087-.188-.087Zm-.347-.713h1.381v.131h-1.381v-.13Zm-.511.064c0-.033.01-.057.03-.073a.115.115 0 0 1 .076-.023c.032 0 .057.008.076.023.018.016.028.04.028.073 0 .031-.01.054-.028.07a.116.116 0 0 1-.076.023.115.115 0 0 1-.077-.023c-.02-.016-.03-.039-.03-.07Zm.51-1.502h1.269v-.19h.58v.129h-.467v1.08h.468v.128h-.581v-.095a1.64 1.64 0 0 0-.36-.2 2.155 2.155 0 0 0-.427-.122 2.777 2.777 0 0 0-.481-.045v-.685Zm.109.129v.436c.151.007.297.024.436.052.138.028.268.066.39.114.12.049.232.108.334.177v-.78h-1.16Zm-.108-1.742h1.381v.13h-1.268v.863h1.268v.133h-1.381v-1.126Zm.688-1.645a1 1 0 0 1 .293.04.647.647 0 0 1 .226.12.53.53 0 0 1 .147.197.664.664 0 0 1 .052.273.646.646 0 0 1-.05.264.547.547 0 0 1-.148.196.664.664 0 0 1-.226.12.976.976 0 0 1-.294.042.892.892 0 0 1-.382-.075.558.558 0 0 1-.246-.218.648.648 0 0 1-.087-.342c0-.137.03-.25.091-.342a.553.553 0 0 1 .252-.206.943.943 0 0 1 .372-.07Zm0 1.117a.87.87 0 0 0 .318-.053.455.455 0 0 0 .212-.161.47.47 0 0 0 .077-.276.477.477 0 0 0-.077-.279.444.444 0 0 0-.213-.161.89.89 0 0 0-.317-.052.907.907 0 0 0-.31.05.444.444 0 0 0-.213.155.456.456 0 0 0-.079.278c0 .164.053.288.16.373.107.084.254.126.442.126Zm-.688-1.617h.464c.116 0 .2-.03.254-.089.052-.058.078-.145.078-.258a.722.722 0 0 0-.044-.261 1.018 1.018 0 0 0-.12-.224h-.632v-.13h1.381v.13h-.636c.05.077.09.155.119.233a.784.784 0 0 1 .043.273c0 .15-.037.263-.112.341a.423.423 0 0 1-.316.116h-.48v-.131Zm0-1.562h.992c.02 0 .04 0 .06.002a1.565 1.565 0 0 1 .124.002l.06.004-1.236-.843v-.161h1.381v.125H28.846a37.086 37.086 0 0 1-.162-.006l1.242.847v.158h-1.381v-.128Zm0-1.603h.605v-.89h-.605v-.13h1.381v.13h-.663v.89h.663v.133h-1.381v-.133Zm0-2.263v-.152l.67.64.711-.679v.163l-.7.665h.7v.132h-1.381v-.132h.67l-.67-.637Zm0-.218v-.14l.877-.342a3.661 3.661 0 0 1 .262-.097 1.45 1.45 0 0 1 .098-.03v-.008a8.862 8.862 0 0 1-.355-.126l-.882-.34v-.14l1.64.645c.08.031.147.065.202.102a.384.384 0 0 1 .126.132c.029.05.043.11.043.182a.47.47 0 0 1-.025.162h-.11a.613.613 0 0 0 .023-.148c0-.05-.01-.092-.03-.127a.281.281 0 0 0-.092-.098.782.782 0 0 0-.159-.08l-.245-.097-1.373.55Z"/></g></g><defs><clipPath id="clip0_606_7"><path fill="#fff" d="M0 0h140v29H0z"/></clipPath></defs></svg>